<svg width="17" height="28" viewBox="0 0 17 28" fill="none" xmlns="http://www.w3.org/2000/svg">
<path d="M15.7533 0.208173C14.4083 0.0654914 13.0566 -0.00394429 11.704 0.00017285C7.22 0.00017285 4.43333 2.85617 4.43333 7.45351V10.5748H0.666667C0.489856 10.5748 0.320286 10.6451 0.195262 10.7701C0.0702374 10.8951 0 11.0647 0 11.2415V16.3748C0 16.5516 0.0702374 16.7212 0.195262 16.8462C0.320286 16.9713 0.489856 17.0415 0.666667 17.0415H4.43333V27.3348C4.43333 27.5116 4.50357 27.6812 4.62859 27.8062C4.75362 27.9313 4.92319 28.0015 5.1 28.0015H10.404C10.5808 28.0015 10.7504 27.9313 10.8754 27.8062C11.0004 27.6812 11.0707 27.5116 11.0707 27.3348V17.0415H14.8253C14.9872 17.0416 15.1435 16.9828 15.2652 16.8761C15.3869 16.7693 15.4656 16.622 15.4867 16.4615L16.1493 11.3282C16.1617 11.2341 16.1538 11.1384 16.1262 11.0477C16.0986 10.9569 16.0519 10.873 15.9893 10.8017C15.9267 10.7304 15.8496 10.6732 15.7632 10.6341C15.6767 10.595 15.5829 10.5748 15.488 10.5748H11.0707V7.96284C11.0707 6.66951 11.3307 6.12951 12.948 6.12951H15.6667C15.8435 6.12951 16.013 6.05927 16.1381 5.93424C16.2631 5.80922 16.3333 5.63965 16.3333 5.46284V0.869506C16.3334 0.707651 16.2746 0.551294 16.1679 0.429607C16.0612 0.30792 15.9138 0.229214 15.7533 0.208173ZM15 4.79484L12.9467 4.79617C10.0707 4.79617 9.73733 6.60417 9.73733 7.96284V11.2428C9.73733 11.4194 9.80739 11.5888 9.93212 11.7138C10.0569 11.8388 10.2261 11.9092 10.4027 11.9095H14.7307L14.2387 15.7095H10.404C10.2272 15.7095 10.0576 15.7797 9.9326 15.9048C9.80757 16.0298 9.73733 16.1994 9.73733 16.3762V26.6668H5.76667V16.3762C5.76667 16.1994 5.69643 16.0298 5.5714 15.9048C5.44638 15.7797 5.27681 15.7095 5.1 15.7095H1.33467V11.9095H5.1C5.27681 11.9095 5.44638 11.8393 5.5714 11.7142C5.69643 11.5892 5.76667 11.4196 5.76667 11.2428V7.45351C5.76667 3.62151 7.98667 1.33351 11.704 1.33351C13.0493 1.33351 14.264 1.40684 15 1.47084V4.79484Z" fill="#011C44"/>
</svg>
