<svg width="25" height="25" viewBox="0 0 25 25" fill="none" xmlns="http://www.w3.org/2000/svg">
<path d="M12.25 6.5C11.1128 6.5 10.0011 6.83723 9.05547 7.46905C8.10989 8.10087 7.3729 8.99889 6.93769 10.0496C6.50249 11.1002 6.38862 12.2564 6.61049 13.3718C6.83235 14.4872 7.37999 15.5117 8.18414 16.3159C8.98829 17.12 10.0128 17.6677 11.1282 17.8895C12.2436 18.1114 13.3998 17.9975 14.4504 17.5623C15.5011 17.1271 16.3991 16.3901 17.031 15.4445C17.6628 14.4989 18 13.3872 18 12.25C18 10.725 17.3942 9.26247 16.3159 8.18414C15.2375 7.1058 13.775 6.5 12.25 6.5ZM12.25 16.5C11.4094 16.5 10.5877 16.2507 9.88883 15.7837C9.18992 15.3168 8.64519 14.653 8.32351 13.8764C8.00184 13.0998 7.91768 12.2453 8.08166 11.4209C8.24565 10.5964 8.65042 9.83917 9.2448 9.2448C9.83917 8.65042 10.5964 8.24565 11.4209 8.08166C12.2453 7.91768 13.0998 8.00184 13.8764 8.32351C14.653 8.64518 15.3168 9.18992 15.7837 9.88883C16.2507 10.5877 16.5 11.4094 16.5 12.25C16.4967 13.3762 16.0479 14.4552 15.2516 15.2516C14.4552 16.0479 13.3762 16.4967 12.25 16.5ZM17.75 0H6.75C4.95979 0 3.2429 0.711159 1.97703 1.97703C0.711159 3.2429 0 4.95979 0 6.75V17.75C0 19.5402 0.711159 21.2571 1.97703 22.523C3.2429 23.7888 4.95979 24.5 6.75 24.5H17.75C19.5402 24.5 21.2571 23.7888 22.523 22.523C23.7888 21.2571 24.5 19.5402 24.5 17.75V6.75C24.5 4.95979 23.7888 3.2429 22.523 1.97703C21.2571 0.711159 19.5402 0 17.75 0ZM23 17.75C23 19.1424 22.4469 20.4777 21.4623 21.4623C20.4777 22.4469 19.1424 23 17.75 23H6.75C5.35761 23 4.02226 22.4469 3.03769 21.4623C2.05312 20.4777 1.5 19.1424 1.5 17.75V6.75C1.5 5.35761 2.05312 4.02225 3.03769 3.03769C4.02226 2.05312 5.35761 1.5 6.75 1.5H17.75C19.1424 1.5 20.4777 2.05312 21.4623 3.03769C22.4469 4.02225 23 5.35761 23 6.75V17.75ZM20 5.75C20 5.99723 19.9267 6.2389 19.7893 6.44446C19.652 6.65002 19.4568 6.81024 19.2284 6.90485C18.9999 6.99946 18.7486 7.02421 18.5061 6.97598C18.2637 6.92775 18.0409 6.8087 17.8661 6.63388C17.6913 6.45907 17.5723 6.23634 17.524 5.99386C17.4758 5.75139 17.5005 5.50005 17.5952 5.27165C17.6898 5.04324 17.85 4.84801 18.0555 4.71066C18.2611 4.57331 18.5028 4.5 18.75 4.5C19.0815 4.5 19.3995 4.6317 19.6339 4.86612C19.8683 5.10054 20 5.41848 20 5.75Z" fill="#011C44"/>
</svg>
