<svg width="27" height="31" viewBox="0 0 27 31" fill="none" xmlns="http://www.w3.org/2000/svg">
<path d="M24.9611 22.1165L24.7877 21.9005C23.4157 20.1658 22.2691 19.2632 21.2851 19.1445C20.4344 19.0285 19.6117 19.6165 18.7371 20.2218L17.8024 20.8058C17.6904 20.8618 17.5797 20.9072 17.4757 20.9378C16.9291 21.0925 15.5491 21.1832 14.7677 20.4685C13.8584 19.6365 12.4477 18.1138 11.3504 16.7832C10.3024 15.4058 9.15039 13.6885 8.54905 12.6072C8.04105 11.6912 8.46639 10.4098 8.75039 9.93516C8.80639 9.84183 8.87972 9.74983 8.96105 9.65916L9.78505 8.89783C9.79705 8.88583 9.80239 8.87116 9.81305 8.86049C9.82105 8.85249 9.83439 8.85516 9.84372 8.84849C10.5877 8.22049 11.3571 7.57383 11.4624 6.74316C11.5864 5.76716 10.9797 4.44716 9.60505 2.71383L9.43705 2.49783C8.58639 1.40716 7.29972 -0.242174 5.45172 0.0298259C4.72505 0.137826 4.07572 0.385826 3.40639 0.805826C3.39972 0.809826 3.39572 0.817826 3.39039 0.821826C3.38505 0.825826 3.37839 0.825826 3.37305 0.829826L2.44105 1.52049C2.43172 1.52583 2.42639 1.53783 2.41705 1.54583C2.41039 1.55249 2.39972 1.55383 2.39172 1.56049C2.28372 1.65116 2.17572 1.74449 2.06905 1.84049C1.12372 2.68316 -0.922948 5.12983 0.473052 9.65516C1.37439 12.5778 3.23305 15.9885 5.86105 19.5378L5.83572 19.5592L7.28505 21.3645L7.29705 21.3552C10.1464 24.7258 13.0464 27.3312 15.7037 28.9085C17.4771 29.9618 19.0264 30.3098 20.3011 30.3098C21.9784 30.3098 23.1797 29.7072 23.7824 29.3152L24.1611 29.0618C24.2037 29.0325 24.2344 28.9912 24.2651 28.9538L25.0904 28.3325C25.0997 28.3245 25.1051 28.3138 25.1144 28.3058C25.1184 28.3018 25.1251 28.3032 25.1304 28.2992C25.7171 27.7632 26.1237 27.2018 26.4064 26.5365C27.1384 24.8312 25.8277 23.1978 24.9611 22.1165ZM25.4264 26.1178C25.2064 26.6352 24.8851 27.0752 24.4211 27.5018L23.1931 28.4258C22.0811 29.1485 19.7037 30.0418 16.2504 27.9912C13.5931 26.4138 10.6677 23.7472 7.78905 20.2792L7.01039 19.2952C4.29972 15.7005 2.39305 12.2578 1.49305 9.34049C0.323719 5.54716 1.79705 3.51249 2.78372 2.63383C2.88372 2.54316 2.98372 2.45916 3.08239 2.37516L3.08639 2.37116L3.98105 1.70849C4.52505 1.36449 5.02905 1.17249 5.60905 1.08449C6.84772 0.897826 7.85572 2.20449 8.59572 3.15383L8.76905 3.37383C10.3051 5.31116 10.4531 6.23249 10.4051 6.60849C10.3517 7.02583 9.71705 7.56049 9.15705 8.03116L9.07839 8.09783C9.07572 8.10049 9.07439 8.10449 9.07172 8.10716C9.06772 8.10983 9.06372 8.11116 9.05972 8.11383L8.20772 8.90183C8.20239 8.90716 8.19972 8.91383 8.19439 8.92049C8.18905 8.92716 8.17839 8.92983 8.17305 8.93649C8.04105 9.08449 7.92772 9.23249 7.83572 9.38583C7.35705 10.1872 6.90505 11.8432 7.61839 13.1245C8.24105 14.2445 9.42639 16.0138 10.5157 17.4432C11.6544 18.8245 13.1064 20.3925 14.0477 21.2525C14.7531 21.8965 15.7344 22.1125 16.5837 22.1125C17.0384 22.1125 17.4557 22.0498 17.7717 21.9605C17.9384 21.9125 18.1104 21.8432 18.2877 21.7565C18.2984 21.7512 18.3037 21.7418 18.3144 21.7352C18.3197 21.7325 18.3277 21.7338 18.3331 21.7298L19.3224 21.1112C19.3544 21.0898 19.3757 21.0618 19.4024 21.0352L19.4144 21.0485C20.0237 20.6258 20.7184 20.1298 21.1531 20.2018C21.5384 20.2485 22.4131 20.6192 23.9517 22.5618L24.1291 22.7845C24.8784 23.7192 25.9051 24.9992 25.4264 26.1178Z" fill="#011C44"/>
</svg>
